<svg xmlns="http://www.w3.org/2000/svg" width="500" height="500" style="width:100%;height:100%;transform:translate3d(0,0,0);content-visibility:visible" viewBox="0 0 500 500"><defs><clipPath id="a"><path d="M0 0h500v500H0z"/></clipPath><clipPath id="c"><path d="M0 0h500v500H0z"/></clipPath><clipPath id="b"><path d="M0 0h500v500H0z"/></clipPath></defs><g clip-path="url(#a)"><g clip-path="url(#b)" style="display:block"><g class="primary design" style="display:none"><path fill="none" class="primary"/></g><g class="primary design" style="display:none"><path fill="none" class="primary"/></g><g class="primary design" style="display:none"><path fill="none" class="primary"/></g><g class="primary design" style="display:block"><path fill="#121331" d="M370.5 132.95c-7.102-9.02-20.163-10.624-29.245-3.48-9.04 7.124-10.581 20.227-3.458 29.267l73.01 92.693L337.985 341c-7.249 8.935-5.916 22.058 3.02 29.307a20.71 20.71 0 0 0 13.123 4.666c6.062 0 12.06-2.625 16.185-7.686l83.32-102.505c6.145-7.561 6.228-18.372.188-26.016L370.5 132.949z" class="primary"/></g><g class="primary design" style="display:block"><path fill="#121331" d="M158.99 129.684c-8.915-7.249-22.017-5.895-29.307 3.02L46.363 235.21c-6.145 7.561-6.228 18.372-.188 26.016l83.32 105.817c4.104 5.207 10.207 7.936 16.373 7.936a20.7 20.7 0 0 0 12.873-4.458c9.04-7.123 10.581-20.226 3.458-29.266l-73.01-92.693 72.822-89.57c7.249-8.935 5.916-22.058-3.02-29.307z" class="primary"/></g><g class="primary design" style="display:block"><path fill="#121331" d="M274.91 125.415c-11.352-2.229-22.267 5.061-24.495 16.351l-41.66 208.3c-2.25 11.29 5.061 22.247 16.33 24.496 1.375.271 2.75.417 4.104.417 9.727 0 18.414-6.853 20.392-16.747l41.66-208.3c2.25-11.29-5.061-22.268-16.33-24.517z" class="primary"/></g><g class="primary design" style="display:none"><path class="primary"/></g><g class="primary design" style="display:none"><path class="primary"/></g><g class="primary design" style="display:none"><path class="primary"/></g></g><g clip-path="url(#c)" style="display:none"><g class="primary design" style="display:none"><path fill="none" class="primary"/></g><g class="primary design" style="display:none"><path fill="none" class="primary"/></g><g class="primary design" style="display:none"><path fill="none" class="primary"/></g><g class="primary design" style="display:none"><path class="primary"/></g><g class="primary design" style="display:none"><path class="primary"/></g><g class="primary design" style="display:none"><path class="primary"/></g></g></g></svg>